<svg height="24" width="24" viewBox="0 0 402 303" xmlns="http://www.w3.org/2000/svg"><path d="m103.05192 2.43935c-11.687 2.784-15.876 9.966-17.26 29.595-1.347 19.099-.438 17.172-9.09 19.266-43.783 10.598-70.818 45.059-74.856 95.419-3.956 49.332 20.336 89.918 61.604 102.927l4.8 1.513-.559 7.225c-2.474 32.002-.901 37.776 11.285 41.427 18.277 5.476 27.873-4.522 29.968-31.228l1.03-13.128 4.238-.664c39.89-6.243 60.593-19.138 60.593-37.74 0-18.141-11.461-23.332-29.747-13.474-57.852 31.189-103.928-7.258-87.193-72.756 10.474-40.995 50.778-54.449 94.816-31.651 16.233 8.403 25.601 5.951 30.066-7.871 6.573-20.355-10.285-34.869-48.654-41.889l-7.456-1.364.336-2.659c1.102-8.736 2.016-25.189 1.538-27.688-2.226-11.645-13.149-18.192-25.459-15.26m125.193 29.103c-4.056 1.294-9.705 7.059-11.375 11.609-1.013 2.758-2.396 16.6-4.999 50l-3.599 46.187-13.979.424c-19.66.595-25.42 4.317-25.42 16.421 0 12.612 5.93 16.629 24.549 16.629 11.765 0 11.891.021 11.898 1.907.004 1.049-1.367 19.323-3.046 40.609-2.882 36.535-2.979 38.958-1.726 43.267 5.75 19.781 38.145 16.721 42.364-4.003.285-1.398 1.662-17.987 3.06-36.864s2.779-36.554 3.069-39.281l.526-4.958 20.458.382c35.762.669 34.019-.839 60.843 52.64 9.851 19.639 18.808 36.886 19.903 38.326 8.994 11.817 31.025 9.255 37.623-4.375 3.908-8.072 3.098-10.658-13.115-41.887-19.263-37.101-22.074-41.207-31.54-46.059-4.514-2.314-4.611-2.215 4.308-4.335 35.107-8.342 52.323-31.128 52.525-69.521.201-38.196-18.296-60.376-55.806-66.918-9.317-1.624-111.504-1.8-116.521-.2m105.686 34.921c14.99 3.534 22.6 11.78 24.853 26.928 2.511 16.882-4.328 33.019-16.891 39.857-10.08 5.486-13.852 5.929-53.811 6.31l-36.298.346.504-4.521c.277-2.486 1.448-17.295 2.602-32.91 1.154-15.614 2.32-30.391 2.593-32.839l.495-4.449 35.32.013c28.168.01 36.396.266 40.633 1.265" fill="#dc3545" fill-rule="evenodd"/></svg>
